#!OML:ASF F:\twosubjects\two\Thursday\Session 1\justin.ASF
:FULLY-SPECIFIED
:DEGREES
243
root 10.6903 16.6747 1.2794 9.20803 -73.7892 -1.50026
lowerback 18.3087 0.902859 -3.31149
upperback 8.93901 0.220504 1.71994
thorax -0.682256 -0.227901 3.65766
lowerneck -18.8938 -0.899996 -9.27743
upperneck -6.68677 0.252598 3.90166
head 1.06045 0.244584 2.96778
rclavicle -3.30976e-014 2.19657e-014
rhumerus -56.1007 -22.6319 -29.5084
rradius 35.6449
rwrist -0.0135843
rhand -31.7436 22.1268
rfingers 7.12502
rthumb -5.00117 -7.7942
lclavicle -3.30976e-014 2.19657e-014
lhumerus -55.1874 7.97812 35.9693
lradius 25.4944
lwrist -21.2388
lhand -10.2999 49.5329
lfingers 7.12502
lthumb 15.6949 78.9164
rfemur -40.8819 -16.0582 8.59811
rtibia 68.122
rfoot -14.9656 4.14808
rtoes -31.4405
lfemur -26.1138 10.5695 -5.94687
ltibia 49.06
lfoot -24.6607 0.696037
ltoes -24.4736
244
root 10.664 16.6703 1.23318 9.38289 -73.105 -1.98766
lowerback 18.483 0.867463 -3.17007
upperback 9.15524 0.176423 1.6453
thorax -0.536333 -0.256252 3.50613
lowerneck -18.5368 -1.00786 -9.40777
upperneck -7.11087 0.0999753 4.28853
head 0.871162 0.184365 3.10977
rclavicle -1.59028e-014 5.04913e-014
rhumerus -56.3089 -22.9515 -30.2239
rradius 35.4197
rwrist 0.376118
rhand -31.29 21.684
rfingers 7.12502
rthumb -4.56312 -8.24689
lclavicle -1.59028e-014 5.04913e-014
lhumerus -55.641 8.21363 36.3377
lradius 25.0316
lwrist -21.7852
lhand -9.30735 50.0213
lfingers 7.12502
lthumb 16.6506 79.3272
rfemur -40.9176 -16.0967 8.13923
rtibia 68.8794
rfoot -14.4782 5.13899
rtoes -29.2057
lfemur -25.8487 10.3124 -5.47803
ltibia 48.8398
lfoot -24.9064 0.420935
ltoes -24.1855
245
root 10.6362 16.6511 1.1784 9.023 -72.4295 -1.67406
lowerback 18.5017 1.06098 -3.56349
upperback 9.20764 0.372605 1.92377
thorax -0.504957 -0.179227 3.99065
lowerneck -18.011 -1.37514 -10.066
upperneck -7.47854 -0.311038 4.42301
head 0.692783 -0.00178961 3.24896
rclavicle 1.68967e-015 6.16232e-015
rhumerus -56.6964 -23.0635 -30.1204
rradius 35.285
rwrist 0.669623
rhand -30.5951 21.3492
rfingers 7.12502
rthumb -3.89212 -8.59501
lclavicle 1.68967e-015 6.16232e-015
lhumerus -56.0256 8.38512 37.2491
lradius 24.5713
lwrist -22.4564
lhand -8.47109 50.2077
lfingers 7.12502
lthumb 17.4555 79.444
rfemur -40.9845 -15.9197 7.43854
rtibia 69.3243
rfoot -14.5081 5.44519
rtoes -28.3018
lfemur -25.8641 10.1865 -5.25804
ltibia 48.6283
lfoot -25.3274 -0.01852
ltoes -23.9861
246
root 10.6097 16.6267 1.11149 8.40236 -71.7993 -0.972053
lowerback 18.5723 1.45671 -4.163
upperback 9.21308 0.802303 2.29181
thorax -0.580401 0.0100276 4.64653
lowerneck -18.0882 -2.0358 -11.0269
upperneck -7.21828 -0.970203 4.88804
head 0.697916 -0.302098 3.21515
rclavicle 6.36111e-015 1.31198e-014
rhumerus -57.4706 -23.2613 -29.5931
rradius 35.2974
rwrist 1.16199
rhand -29.3775 21.2971
rfingers 7.12502
rthumb -2.71627 -8.66532
lclavicle 6.36111e-015 1.31198e-014
lhumerus -56.06 8.73059 38.158
lradius 24.063
lwrist -23.4895
lhand -7.93432 50.164
lfingers 7.12502
lthumb 17.972 79.3536
rfemur -41.053 -15.6427 6.67999
rtibia 69.4203
rfoot -14.8275 5.05327
rtoes -28.9145
lfemur -26.0559 10.0219 -5.17209
ltibia 48.4411
lfoot -25.3059 -0.403071
ltoes -23.8761
247
root 10.5771 16.6119 1.04129 8.60544 -71.0727 -1.17012
lowerback 18.6549 1.5055 -4.1305
upperback 9.21531 0.870707 2.23251
thorax -0.627257 0.0494681 4.55142
lowerneck -18.0381 -2.46345 -11.2999
upperneck -7.063 -1.48026 5.24622
head 0.783775 -0.543983 3.33889
rclavicle -5.00937e-014 7.95139e-015
rhumerus -57.8666 -23.3082 -30.1818
rradius 35.2029
rwrist 1.67743
rhand -28.1302 21.5924
rfingers 7.12502
rthumb -1.51167 -8.38202
lclavicle -5.00937e-014 7.95139e-015
lhumerus -56.3852 9.2357 37.8689
lradius 23.6922
lwrist -24.4531
lhand -7.42683 50.3776
lfingers 7.12502
lthumb 18.4603 79.5216
rfemur -40.9314 -15.4108 6.26406
rtibia 69.1456
rfoot -15.0839 4.33581
rtoes -29.5469
lfemur -26.239 9.75284 -4.77729
ltibia 48.2203
lfoot -25.1234 -0.713084
ltoes -23.4304
248
root 10.5316 16.6107 0.976996 8.18088 -70.2679 -0.925096
lowerback 18.7391 1.35193 -4.04458
upperback 9.27427 0.674083 1.8737
thorax -0.583397 -0.0388107 4.15595
lowerneck -17.9099 -2.77531 -11.2577
upperneck -6.96493 -1.90431 5.89488
head 0.843771 -0.741947 3.5083
rclavicle -4.60187e-014 1.19271e-014
rhumerus -58.0486 -23.2954 -31.2402
rradius 35.0901
rwrist 1.97365
rhand -27.13 21.9131
rfingers 7.12502
rthumb -0.54561 -8.066
lclavicle -4.60187e-014 1.19271e-014
lhumerus -56.9958 9.63295 37.0387
lradius 23.5006
lwrist -24.9228
lhand -7.21377 50.76
lfingers 7.12502
lthumb 18.6652 79.8845
rfemur -40.2921 -15.2496 5.5372
rtibia 68.4775
rfoot -15.521 3.48478
rtoes -29.5606
lfemur -26.0708 9.28797 -4.48916
ltibia 47.913
lfoot -25.1418 -1.28222
ltoes -22.5976
249
root 10.4788 16.6119 0.913858 7.88328 -69.4171 -0.84749
lowerback 18.7617 1.28359 -3.70351
upperback 9.39523 0.628787 1.49746
thorax -0.458106 -0.0468294 3.56853
lowerneck -17.6968 -3.16589 -11.3562
upperneck -6.94893 -2.41414 6.77645
head 0.884393 -0.974454 3.76828
rclavicle 3.13086e-015 -2.19657e-014
rhumerus -58.5754 -23.7936 -31.7358
rradius 34.7864
rwrist 2.63682
rhand -26.241 22.5862
rfingers 7.12502
rthumb 0.312958 -7.39333
lclavicle 3.13086e-015 -2.19657e-014
lhumerus -57.0874 9.80693 36.3448
lradius 23.2564
lwrist -25.1906
lhand -6.93531 50.9665
lfingers 7.12502
lthumb 18.933 80.0651
rfemur -39.3541 -14.8811 4.77683
rtibia 67.4289
rfoot -16.1154 2.27352
rtoes -28.5899
lfemur -25.7864 8.73811 -4.11137
ltibia 47.5403
lfoot -25.0435 -2.15588
ltoes -21.1547
250
root 10.4256 16.6028 0.845757 8.61462 -68.6548 -1.74024
lowerback 18.7049 1.28925 -2.937
upperback 9.44777 0.75753 1.22842
thorax -0.378497 0.04841 2.8224
lowerneck -17.2649 -3.57231 -11.4318
upperneck -7.02644 -2.97283 7.45049
head 0.869513 -1.23996 3.95852
rclavicle -2.39039e-014 -2.43511e-014
rhumerus -59.2538 -24.4463 -31.8758
rradius 34.3927
rwrist 3.15521
rhand -26.0078 22.9234
rfingers 7.12502
rthumb 0.538245 -7.05568
lclavicle -2.39039e-014 -2.43511e-014
lhumerus -56.8572 9.79976 35.7961
lradius 22.8686
lwrist -25.3815
lhand -6.49038 51.1287
lfingers 7.12502
lthumb 19.3609 80.1849
rfemur -38.4291 -14.0628 4.4014
rtibia 66.0648
rfoot -16.4366 0.577625
rtoes -25.681
lfemur -25.6401 8.46251 -3.3982
ltibia 47.1249
lfoot -24.8984 -2.48256
ltoes -21.6936
251
root 10.3821 16.5982 0.770794 9.34721 -67.902 -2.70014
lowerback 18.6797 1.29066 -2.66047
upperback 9.58878 0.801826 1.31403
thorax -0.21579 0.0710909 2.74818
lowerneck -16.8377 -3.8895 -11.7512
upperneck -7.28535 -3.37402 7.94384
head 0.78655 -1.42843 4.14439
rclavicle 4.65156e-014 -2.6985e-014
rhumerus -59.2001 -24.6848 -32.0843
rradius 34.1699
rwrist 3.14401
rhand -26.2042 22.8382
rfingers 7.12502
rthumb 0.348488 -7.14127
lclavicle 4.65156e-014 -2.6985e-014
lhumerus -57.2032 10.4843 35.3614
lradius 22.5839
lwrist -25.6327
lhand -6.46657 51.454
lfingers 7.12502
lthumb 19.3838 80.5079
rfemur -37.4572 -13.1234 4.16296
rtibia 64.4769
rfoot -16.7481 -1.80071
rtoes -23.3317
lfemur -25.491 8.23568 -2.63566
ltibia 46.6709
lfoot -24.9835 -2.5943
ltoes -22.7138
252
root 10.3415 16.6035 0.695769 9.75519 -66.9551 -3.3138
lowerback 18.7935 1.17317 -2.45792
upperback 9.65885 0.678971 1.34187
thorax -0.188978 0.0145386 2.68535
lowerneck -16.3083 -4.09022 -11.6749
upperneck -7.66994 -3.70333 8.16581
head 0.633108 -1.5984 4.18988
rclavicle 8.82107e-015 2.49723e-015
rhumerus -59.2202 -24.774 -32.3247
rradius 34.1412
rwrist 3.59334
rhand -26.146 22.937
rfingers 7.12502
rthumb 0.40478 -7.04236
lclavicle 8.82107e-015 2.49723e-015
lhumerus -57.8449 11.1644 34.7321
lradius 22.5066
lwrist -25.6945
lhand -6.32065 51.9283
lfingers 7.12502
lthumb 19.5241 80.968
rfemur -36.4044 -12.3632 3.84615
rtibia 62.6999
rfoot -17.0934 -4.13673
rtoes -21.7289
lfemur -25.4223 7.71587 -1.96601
ltibia 46.1893
lfoot -24.9702 -2.98713
ltoes -22.4316
253
root 10.2902 16.6051 0.618307 9.36078 -66.119 -3.08514
lowerback 18.922 1.13074 -2.53054
upperback 9.70155 0.608363 1.21918
thorax -0.203251 -0.0196042 2.60951
lowerneck -15.8941 -4.37102 -11.4919
upperneck -7.92667 -4.14353 8.40349
head 0.544592 -1.82623 4.21427
rclavicle -2.90723e-015 1.89342e-014
rhumerus -59.2069 -24.9595 -32.4132
rradius 33.8278
rwrist 4.30716
rhand -26.4605 22.5349
rfingers 7.12502
rthumb 0.101025 -7.44481
lclavicle -2.90723e-015 1.89342e-014
lhumerus -58.2988 11.6689 33.9903
lradius 22.3426
lwrist -25.784
lhand -5.85551 52.2023
lfingers 7.12502
lthumb 19.9713 81.1961
rfemur -35.2444 -11.6016 3.09936
rtibia 60.7523
rfoot -17.3888 -5.7211
rtoes -20.049
lfemur -25.2555 7.09773 -1.65458
ltibia 45.6548
lfoot -24.5734 -3.22835
ltoes -22.5386
254
root 10.2338 16.608 0.535084 8.89401 -65.5457 -2.8028
lowerback 19.0939 1.23335 -2.59784
upperback 9.70132 0.724575 1.0339
thorax -0.297112 0.0432167 2.42901
lowerneck -15.5714 -4.78728 -11.7401
upperneck -7.92409 -4.67631 9.0968
head 0.582531 -2.08123 4.43964
rclavicle 4.43787e-014 1.16786e-014
rhumerus -59.254 -25.1331 -32.46
rradius 33.3889
rwrist 4.68761
rhand -27.1919 21.8642
rfingers 7.12502
rthumb -0.605409 -8.11473
lclavicle 4.43787e-014 1.16786e-014
lhumerus -58.4339 11.625 33.5991
lradius 22.138
lwrist -25.9559
lhand -5.10883 52.3308
lfingers 7.12502
lthumb 20.6888 81.248
rfemur -34.0525 -10.5548 2.32173
rtibia 58.6654
rfoot -17.5728 -6.82938
rtoes -18.7867
lfemur -24.9037 6.68226 -1.32401
ltibia 45.0667
lfoot -24.028 -3.75762
ltoes -22.1562
255
root 10.1775 16.6141 0.453373 8.85783 -64.94 -2.80705
lowerback 19.0417 1.33769 -2.71337
upperback 9.6537 0.85179 1.04584
thorax -0.330725 0.107132 2.48319
lowerneck -15.3054 -5.16437 -12.2464
upperneck -7.78741 -5.11483 9.71098
head 0.665818 -2.28248 4.68498
rclavicle -1.61513e-015 1.22253e-014
rhumerus -59.399 -25.1693 -32.2955
rradius 33.4526
rwrist 5.14186
rhand -26.96 21.6839
rfingers 7.12502
rthumb -0.381463 -8.2955
lclavicle -1.61513e-015 1.22253e-014
lhumerus -58.6462 11.0519 33.9944
lradius 22.0958
lwrist -25.7163
lhand -4.22874 52.4343
lfingers 7.12502
lthumb 21.5343 81.2572
rfemur -32.9709 -9.30087 1.72845
rtibia 56.5054
rfoot -17.3291 -7.8594
rtoes -17.0405
lfemur -24.6816 6.27516 -0.863524
ltibia 44.433
lfoot -23.6235 -4.40015
ltoes -21.2861
256
root 10.117 16.6219 0.361167 8.98889 -64.0733 -2.86816
lowerback 18.8508 1.40424 -2.95098
upperback 9.59484 0.921736 1.17388
thorax -0.304857 0.13657 2.74136
lowerneck -15.0003 -5.5306 -12.7082
upperneck -7.71792 -5.55538 10.1867
head 0.720939 -2.48971 4.88099
rclavicle 8.80368e-014 2.40529e-014
rhumerus -59.5986 -25.2508 -31.9507
rradius 33.7593
rwrist 5.46946
rhand -26.3826 21.674
rfingers 7.12502
rthumb 0.176176 -8.30565
lclavicle 8.80368e-014 2.40529e-014
lhumerus -58.8674 10.702 34.2401
lradius 21.973
lwrist -25.6223
lhand -3.92139 52.6408
lfingers 7.12502
lthumb 21.8294 81.4295
rfemur -31.9627 -8.11612 1.29909
rtibia 54.3541
rfoot -16.6664 -8.74269
rtoes -16.7792
lfemur -24.7125 5.59409 -0.371175
ltibia 43.795
lfoot -23.3806 -4.51215
ltoes -22.0072
257
root 10.0508 16.6198 0.253514 9.48864 -63.1682 -3.3931
lowerback 18.7441 1.42045 -2.87304
upperback 9.55072 0.96788 1.11431
thorax -0.299628 0.168843 2.6257
lowerneck -14.7076 -5.83932 -12.7252
upperneck -7.69653 -5.98864 10.7296
head 0.760094 -2.70433 5.02665
rclavicle -5.07398e-014 4.36332e-014
rhumerus -59.6628 -25.4134 -32.0144
rradius 33.6603
rwrist 5.44946
rhand -26.9166 21.5959
rfingers 7.12502
rthumb -0.339585 -8.38362
lclavicle -5.07398e-014 4.36332e-014
lhumerus -58.739 10.2986 33.9822
lradius 21.6278
lwrist -25.5677
lhand -4.01047 52.7326
lfingers 7.12502
lthumb 21.7439 81.5314
rfemur -30.9261 -6.75848 1.15676
rtibia 52.221
rfoot -16.1132 -9.10788
rtoes -18.9062
lfemur -24.7472 5.01094 0.440687
ltibia 43.1714
lfoot -22.9295 -4.22147
ltoes -25.3329
